<?xml version="1.0" encoding="utf-8"?>
<!-- Generator: Adobe Illustrator 28.1.0, SVG Export Plug-In . SVG Version: 6.00 Build 0)  -->
<svg version="1.1" id="Layer_1" xmlns="http://www.w3.org/2000/svg" xmlns:xlink="http://www.w3.org/1999/xlink" x="0px" y="0px"
	 viewBox="0 0 623.54 332.84" style="enable-background:new 0 0 623.54 332.84;" xml:space="preserve">
<style type="text/css">
	.st0{fill:#232021;stroke:#FFFFFF;stroke-width:3;stroke-linecap:round;stroke-linejoin:round;stroke-miterlimit:10;}
	.st1{fill:#8DBE5B;stroke:#FFFFFF;stroke-width:2;stroke-miterlimit:10;}
	.st2{fill:#232021;}
	.st3{fill:#8DBE5B;}
</style>
<g>
	<path class="st0" d="M260.08,183.7c-2.18,6.63-4.75,12.86-9.15,18.15c-8.86,10.67-21.49,11.65-31.74,2.3
		c-11.04-10.07-15.54-23.4-18.22-37.57c-2.25-11.85-1.76-23.87-0.49-35.65c1.64-15.27,10.8-26.13,23.91-33.72
		c22.13-12.82,51.73-9.22,69.57,8.44c19.74,19.55,17.4,50.2-5.1,66.64C280.27,178.59,273.71,181.2,260.08,183.7z"/>
	<path class="st1" d="M496.89,207.38c-10.13,9.93-32.09,17.56-42.02,14.81c0-43.28,0-86.51,0-129.59
		c10.48-2.44,32.65,5.63,41.99,14.92C497.32,140.69,497.23,173.91,496.89,207.38z"/>
	<path class="st1" d="M167.52,92.07c0,43.61,0,86.85,0,130.64c-15.97,0.33-29.39-5.2-41.71-15.03c0-3.01,0-6.03,0-9.06
		c0-27.44,0.47-54.88-0.27-82.3c-0.22-8.08,2.75-12.08,9.14-15.49C144.78,95.43,155.29,91.95,167.52,92.07z"/>
	<path class="st1" d="M64.42,296.63c7.52,2.61,9.58,7.52,9.41,13.8c-0.04,1.46-0.02,2.91-0.02,4.37
		c-0.01,11.02-3.4,15.78-14.45,16.18c-19.3,0.69-38.64,0.19-58.36,0.19c0-22.29,0-44.45,0-66.65c1.4-1.06,3.05-0.61,4.59-0.61
		c17.35-0.04,34.71-0.04,52.06-0.03c11.5,0.01,15.8,4.35,15.81,15.89c0,0.79-0.06,1.59-0.01,2.38
		C73.87,288.63,72.41,294.07,64.42,296.63z M16.65,318.8c13.09-0.26,25.87,0.7,38.66-0.32c1.03-0.08,2.21-0.55,2.6-1.61
		c1.47-3.97,1.53-8.21,0.26-12.05c-1.03-3.09-4.65-2.62-7.34-2.65c-10.07-0.11-20.14-0.04-30.22-0.02c-1.3,0-2.68-0.28-3.97,0.92
		C16.65,308,16.65,313.1,16.65,318.8z M16.66,290.85c11.53,0,22.52,0,33.51-0.01c1.19,0,2.39-0.03,3.58-0.13
		c1.81-0.15,3.4-0.84,4.3-2.48c3.45-6.27-0.28-12.98-7.39-13.07c-10.21-0.13-20.42-0.04-30.64-0.03c-1.05,0-2.14-0.12-3.48,1.07
		C16.19,280.6,16.21,285.42,16.66,290.85z"/>
	<path class="st0" d="M324.03,330.61c0-21.93,0-43.98,0-66.03c0.53-0.21,0.89-0.48,1.25-0.48c19.08-0.02,38.16-0.15,57.24,0.03
		c9.63,0.09,13.7,4.51,13.75,14.02c0.01,1.46-0.1,2.92,0.03,4.37c0.59,6.65-1.27,11.81-9.81,14.06c6.3,1.9,9.8,5.09,10.24,10.47
		c0.4,4.86,0.86,9.82-0.32,14.63c-1.45,5.89-6.24,7.94-11.54,8.85c-3.24,0.56-6.59,0.66-9.89,0.67c-15.77,0.06-31.53,0.04-47.3,0.02
		C326.52,331.22,325.29,331.57,324.03,330.61z M339.63,319.09c10.92,0,21.6,0,32.29,0c9.84,0,10.45-0.79,10.3-10.69
		c-0.06-4.25-2.02-6.08-5.98-6.16c-4.23-0.09-8.47-0.05-12.7-0.06c-7.9-0.01-15.81,0-23.91,0
		C339.63,307.98,339.63,313.33,339.63,319.09z M339.54,290.97c12.07,0,23.72,0.11,35.37-0.05c6.07-0.08,7.02-1.7,6.84-10.05
		c-0.09-4.15-1.91-5.66-7.24-5.68c-10.61-0.05-21.22-0.02-31.83,0c-1.02,0-2.14-0.27-3.14,0.78
		C339.54,280.68,339.54,285.55,339.54,290.97z"/>
	<path class="st0" d="M580.76,330.9c-10.19-0.01-20.4,1.07-30.56-0.14c-7.24-0.86-10.51-4.08-10.67-11.42
		c-0.31-14.3-0.37-28.61-0.04-42.9c0.19-8.21,3.48-11.62,11.81-11.94c13.89-0.53,27.8-0.36,41.7-0.4c5.69-0.02,11.4-0.06,17.06,0.36
		c8.18,0.6,11.68,4.18,11.82,12.48c0.22,13.77,0.21,27.55-0.04,41.32c-0.15,8.41-3.27,11.99-11.71,12.5
		C600.37,331.35,590.55,330.9,580.76,330.9z M606.03,318.31c0-14.03,0-27.85,0-41.86c-16.98,0-33.72,0-50.69,0
		c0,14.03,0,27.84,0,41.86C572.34,318.31,589.09,318.31,606.03,318.31z"/>
	<path class="st0" d="M466.52,330.87c-9.94,0-19.9,0.46-29.8-0.15c-7.9-0.49-10.94-3.91-11.12-11.79
		c-0.32-14.18-0.31-28.37-0.01-42.55c0.17-7.87,3.51-11.38,11.52-11.92c8.84-0.59,17.75-0.35,26.63-0.36
		c10.47-0.01,20.96-0.24,31.41,0.28c9.37,0.46,12.61,3.93,12.79,13.2c0.26,13.39,0.29,26.79,0,40.17
		c-0.21,9.79-4.3,13.31-14.77,13.45c-8.88,0.12-17.77,0.02-26.65,0.02C466.52,331.11,466.52,330.99,466.52,330.87z M441.4,276.44
		c0,14.02,0,27.85,0,41.86c16.99,0,33.74,0,50.72,0c0-14.02,0-27.85,0-41.86C475.12,276.44,458.37,276.44,441.4,276.44z"/>
	<path class="st1" d="M278.35,264.12c4.33,0,8.26,0,12.69,0c0,22.37,0,44.5,0,66.93c-4.91,0-9.47,0-14.68,0c0-14.48,0-28.8,0-43.11
		c-0.38-0.13-0.76-0.25-1.15-0.38c-8.86,11.77-17.72,23.55-26.5,35.21c-3.46,1.5-5.01-0.84-6.61-2.98
		c-7.62-10.17-15.21-20.36-22.83-30.54c-0.45-0.6-1-1.13-2.59-2.92c0,15.68,0,30.02,0,44.4c-4.79,0.94-8.69,0.63-12.95,0.36
		c0-22.33,0-44.48,0-66.85c6.77-0.55,12.74-1.67,17.53,5.49c7.13,10.64,15.56,20.41,23.42,30.57c0.81,1.05,1.51,2.18,3.75,2.85
		C258.24,290.37,268.24,277.32,278.35,264.12z"/>
	<path class="st1" d="M187.73,67.85c4.82,3.33,9.36,6.47,13.96,9.65c-0.28,0.8-0.32,1.37-0.62,1.73
		c-6.96,8.22-7.99,17.93-7.92,28.27c0.25,36.86,0.11,73.71,0.12,110.57c0,1.44,0,2.88,0,4.69c-6.48,0-12.6,0-18.68,0
		c-0.91-1.66-0.53-3.28-0.53-4.83c-0.03-40.97-0.02-81.94-0.06-122.9c0-2.04,0.27-3.97,1.2-5.76
		C178.92,82.11,182.32,74.76,187.73,67.85z"/>
	<path class="st1" d="M420.88,77.53c4.88-3.28,9.33-6.26,13.95-9.36c3.54,3.57,5.18,7.81,7.54,11.58
		c4.78,7.64,6.47,15.72,6.37,24.83c-0.39,37.91-0.15,75.83-0.15,113.74c0,1.31,0,2.62,0,4.35c-6.48,0.7-12.58,0.72-18.53-0.09
		c-0.99-1.82-0.64-3.45-0.64-5.01c-0.03-38.45-0.18-76.89,0.09-115.33c0.05-7.09-1.18-13.31-5.36-18.99
		C423.01,81.68,422.2,79.85,420.88,77.53z"/>
	<path class="st1" d="M144.15,264.12c12.69,22.14,25.31,44.15,38.31,66.85c-6.49,0-12.08,0-18.07,0c-2.53-4.51-5.16-9.21-7.81-13.92
		c-14.15,0-28.03,0-42.12,0c-2.62,4.76-5.22,9.47-7.77,14.09c-5.23,0-10.09,0-16.1,0c12.86-22.76,25.35-44.86,37.87-67.01
		C133.77,264.12,138.76,264.12,144.15,264.12z M121.39,303.88c9.71,0,18.66,0,28.3,0c-4.7-8.9-9.09-17.21-13.87-26.26
		C130.75,286.83,126.16,295.19,121.39,303.88z"/>
	<path class="st0" d="M261.79,9.91c2.07,5.62,3.97,10.78,5.96,16.21c-12.66,5.01-24.48,11.1-35.18,19.24
		c-10.71,8.15-20,17.68-28.21,28.79c-4.63-3.34-9.09-6.56-14.04-10.13C208.68,38.82,232.3,21.04,261.79,9.91z"/>
	<path class="st0" d="M354.27,25.91c2.6-5.46,4.72-10.34,6.47-15.99c29.32,10.84,52.91,28.71,71.53,53.93
		c-4.76,3.57-9.3,6.97-13.93,10.44C402.09,51.83,380.73,35.95,354.27,25.91z"/>
	<path class="st1" d="M272.37,24.68c-2.8-5.22-3.78-10.55-5.69-16.16c29.85-10.08,59.3-9.93,89.24-0.13
		c-1.72,5.51-3.32,10.64-5.09,16.34C324.52,16.33,298.48,16.01,272.37,24.68z"/>
	<path class="st1" d="M501.72,123.31c0.89-0.68,1.27-1.07,1.73-1.3c0.58-0.29,1.22-0.45,2.36-0.86c3.62,3.97,6.79,8.35,6.88,13.98
		c0.24,14.82,0.16,29.65,0.14,44.48c-0.01,4.76-2.44,8.65-5.36,12.06c-1.88,2.2-5.08,0.91-5.68-2c-0.18-0.89-0.1-1.85-0.1-2.77
		c0-19.47,0.01-38.94,0.01-58.41C501.72,126.78,501.72,125.07,501.72,123.31z"/>
	<path class="st1" d="M120.7,123.24c0.08,1.5,0.23,3.2,0.23,4.9c0.02,19.62,0.01,39.25,0.02,58.87c0,2.29,0.25,4.77-2.65,5.5
		c-2.86,0.72-3.84-1.56-5.03-3.51c-2.32-3.83-3.43-7.83-3.35-12.42c0.22-13.26,0.19-26.52,0.01-39.78
		c-0.07-5.26,2.2-9.48,4.92-13.57C116.43,120.86,117.38,120.97,120.7,123.24z"/>
	<path class="st0" d="M311.17,195.8c-5.21-0.04-9.3-2.82-9.16-6.23c0.13-3.26,4.16-5.92,9.06-5.99c5.3-0.07,9.69,2.82,9.57,6.3
		C320.53,193.24,316.38,195.84,311.17,195.8z"/>
	<path class="st2" d="M324.03,330.61c0-21.93,0-43.98,0-66.03c0.53-0.21,0.89-0.48,1.25-0.48c19.08-0.02,38.16-0.15,57.24,0.03
		c9.63,0.09,13.7,4.51,13.75,14.02c0.01,1.46-0.1,2.92,0.03,4.37c0.59,6.65-1.27,11.81-9.81,14.06c6.3,1.9,9.8,5.09,10.24,10.47
		c0.4,4.86,0.86,9.82-0.32,14.63c-1.45,5.89-6.24,7.94-11.54,8.85c-3.24,0.56-6.59,0.66-9.89,0.67c-15.77,0.06-31.53,0.04-47.3,0.02
		C326.52,331.22,325.29,331.57,324.03,330.61z M339.63,319.09c10.92,0,21.6,0,32.29,0c9.84,0,10.45-0.79,10.3-10.69
		c-0.06-4.25-2.02-6.08-5.98-6.16c-4.23-0.09-8.47-0.05-12.7-0.06c-7.9-0.01-15.81,0-23.91,0
		C339.63,307.98,339.63,313.33,339.63,319.09z M339.54,290.97c12.07,0,23.72,0.11,35.37-0.05c6.07-0.08,7.02-1.7,6.84-10.05
		c-0.09-4.15-1.91-5.66-7.24-5.68c-10.61-0.05-21.22-0.02-31.83,0c-1.02,0-2.14-0.27-3.14,0.78
		C339.54,280.68,339.54,285.55,339.54,290.97z"/>
	<path class="st2" d="M580.76,330.9c-10.19-0.01-20.4,1.07-30.56-0.14c-7.24-0.86-10.51-4.08-10.67-11.42
		c-0.31-14.3-0.37-28.61-0.04-42.9c0.19-8.21,3.48-11.62,11.81-11.94c13.89-0.53,27.8-0.36,41.7-0.4c5.69-0.02,11.4-0.06,17.06,0.36
		c8.18,0.6,11.68,4.18,11.82,12.48c0.22,13.77,0.21,27.55-0.04,41.32c-0.15,8.41-3.27,11.99-11.71,12.5
		C600.37,331.35,590.55,330.9,580.76,330.9z M606.03,318.31c0-14.03,0-27.85,0-41.86c-16.98,0-33.72,0-50.69,0
		c0,14.03,0,27.84,0,41.86C572.34,318.31,589.09,318.31,606.03,318.31z"/>
	<path class="st2" d="M466.52,330.87c-9.94,0-19.9,0.46-29.8-0.15c-7.9-0.49-10.94-3.91-11.12-11.79
		c-0.32-14.18-0.31-28.37-0.01-42.55c0.17-7.87,3.51-11.38,11.52-11.92c8.84-0.59,17.75-0.35,26.63-0.36
		c10.47-0.01,20.96-0.24,31.41,0.28c9.37,0.46,12.61,3.93,12.79,13.2c0.26,13.39,0.29,26.79,0,40.17
		c-0.21,9.79-4.3,13.31-14.77,13.45c-8.88,0.12-17.77,0.02-26.65,0.02C466.52,331.11,466.52,330.99,466.52,330.87z M441.4,276.44
		c0,14.02,0,27.85,0,41.86c16.99,0,33.74,0,50.72,0c0-14.02,0-27.85,0-41.86C475.12,276.44,458.37,276.44,441.4,276.44z"/>
	<path class="st2" d="M261.79,9.91c2.07,5.62,3.97,10.78,5.96,16.21c-12.66,5.01-24.48,11.1-35.18,19.24
		c-10.71,8.15-20,17.68-28.21,28.79c-4.63-3.34-9.09-6.56-14.04-10.13C208.68,38.82,232.3,21.04,261.79,9.91z"/>
	<path class="st2" d="M354.27,25.91c2.6-5.46,4.72-10.34,6.47-15.99c29.32,10.84,52.91,28.71,71.53,53.93
		c-4.76,3.57-9.3,6.97-13.93,10.44C402.09,51.83,380.73,35.95,354.27,25.91z"/>
	<path class="st2" d="M311.17,195.8c-5.21-0.04-9.3-2.82-9.16-6.23c0.13-3.26,4.16-5.92,9.06-5.99c5.3-0.07,9.69,2.82,9.57,6.3
		C320.53,193.24,316.38,195.84,311.17,195.8z"/>
	<path class="st3" d="M496.89,207.38c-10.13,9.93-32.09,17.56-42.02,14.81c0-43.28,0-86.51,0-129.59
		c10.48-2.44,32.65,5.63,41.99,14.92C497.32,140.69,497.23,173.91,496.89,207.38z"/>
	<path class="st3" d="M167.52,92.07c0,43.61,0,86.85,0,130.64c-15.97,0.33-29.39-5.2-41.71-15.03c0-3.01,0-6.03,0-9.06
		c0-27.44,0.47-54.88-0.27-82.3c-0.22-8.08,2.75-12.08,9.14-15.49C144.78,95.43,155.29,91.95,167.52,92.07z"/>
	<path class="st3" d="M64.42,296.63c7.52,2.61,9.58,7.52,9.41,13.8c-0.04,1.46-0.02,2.91-0.02,4.37
		c-0.01,11.02-3.4,15.78-14.45,16.18c-19.3,0.69-38.64,0.19-58.36,0.19c0-22.29,0-44.45,0-66.65c1.4-1.06,3.05-0.61,4.59-0.61
		c17.35-0.04,34.71-0.04,52.06-0.03c11.5,0.01,15.8,4.35,15.81,15.89c0,0.79-0.06,1.59-0.01,2.38
		C73.87,288.63,72.41,294.07,64.42,296.63z M16.65,318.8c13.09-0.26,25.87,0.7,38.66-0.32c1.03-0.08,2.21-0.55,2.6-1.61
		c1.47-3.97,1.53-8.21,0.26-12.05c-1.03-3.09-4.65-2.62-7.34-2.65c-10.07-0.11-20.14-0.04-30.22-0.02c-1.3,0-2.68-0.28-3.97,0.92
		C16.65,308,16.65,313.1,16.65,318.8z M16.66,290.85c11.53,0,22.52,0,33.51-0.01c1.19,0,2.39-0.03,3.58-0.13
		c1.81-0.15,3.4-0.84,4.3-2.48c3.45-6.27-0.28-12.98-7.39-13.07c-10.21-0.13-20.42-0.04-30.64-0.03c-1.05,0-2.14-0.12-3.48,1.07
		C16.19,280.6,16.21,285.42,16.66,290.85z"/>
	<path class="st3" d="M278.35,264.12c4.33,0,8.26,0,12.69,0c0,22.37,0,44.5,0,66.93c-4.91,0-9.47,0-14.68,0c0-14.48,0-28.8,0-43.11
		c-0.38-0.13-0.76-0.25-1.15-0.38c-8.86,11.77-17.72,23.55-26.5,35.21c-3.46,1.5-5.01-0.84-6.61-2.98
		c-7.62-10.17-15.21-20.36-22.83-30.54c-0.45-0.6-1-1.13-2.59-2.92c0,15.68,0,30.02,0,44.4c-4.79,0.94-8.69,0.63-12.95,0.36
		c0-22.33,0-44.48,0-66.85c6.77-0.55,12.74-1.67,17.53,5.49c7.13,10.64,15.56,20.41,23.42,30.57c0.81,1.05,1.51,2.18,3.75,2.85
		C258.24,290.37,268.24,277.32,278.35,264.12z"/>
	<path class="st3" d="M187.73,67.85c4.82,3.33,9.36,6.47,13.96,9.65c-0.28,0.8-0.32,1.37-0.62,1.73
		c-6.96,8.22-7.99,17.93-7.92,28.27c0.25,36.86,0.11,73.71,0.12,110.57c0,1.44,0,2.88,0,4.69c-6.48,0-12.6,0-18.68,0
		c-0.91-1.66-0.53-3.28-0.53-4.83c-0.03-40.97-0.02-81.94-0.06-122.9c0-2.04,0.27-3.97,1.2-5.76
		C178.92,82.11,182.32,74.76,187.73,67.85z"/>
	<path class="st3" d="M420.88,77.53c4.88-3.28,9.33-6.26,13.95-9.36c3.54,3.57,5.18,7.81,7.54,11.58
		c4.78,7.64,6.47,15.72,6.37,24.83c-0.39,37.91-0.15,75.83-0.15,113.74c0,1.31,0,2.62,0,4.35c-6.48,0.7-12.58,0.72-18.53-0.09
		c-0.99-1.82-0.64-3.45-0.64-5.01c-0.03-38.45-0.18-76.89,0.09-115.33c0.05-7.09-1.18-13.31-5.36-18.99
		C423.01,81.68,422.2,79.85,420.88,77.53z"/>
	<path class="st3" d="M144.15,264.12c12.69,22.14,25.31,44.15,38.31,66.85c-6.49,0-12.08,0-18.07,0c-2.53-4.51-5.16-9.21-7.81-13.92
		c-14.15,0-28.03,0-42.12,0c-2.62,4.76-5.22,9.47-7.77,14.09c-5.23,0-10.09,0-16.1,0c12.86-22.76,25.35-44.86,37.87-67.01
		C133.77,264.12,138.76,264.12,144.15,264.12z M121.39,303.88c9.71,0,18.66,0,28.3,0c-4.7-8.9-9.09-17.21-13.87-26.26
		C130.75,286.83,126.16,295.19,121.39,303.88z"/>
	<path class="st3" d="M272.37,24.68c-2.8-5.22-3.78-10.55-5.69-16.16c29.85-10.08,59.3-9.93,89.24-0.13
		c-1.72,5.51-3.32,10.64-5.09,16.34C324.52,16.33,298.48,16.01,272.37,24.68z"/>
	<path class="st3" d="M501.72,123.31c0.89-0.68,1.27-1.07,1.73-1.3c0.58-0.29,1.22-0.45,2.36-0.86c3.62,3.97,6.79,8.35,6.88,13.98
		c0.24,14.82,0.16,29.65,0.14,44.48c-0.01,4.76-2.44,8.65-5.36,12.06c-1.88,2.2-5.08,0.91-5.68-2c-0.18-0.89-0.1-1.85-0.1-2.77
		c0-19.47,0.01-38.94,0.01-58.41C501.72,126.78,501.72,125.07,501.72,123.31z"/>
	<path class="st3" d="M120.7,123.24c0.08,1.5,0.23,3.2,0.23,4.9c0.02,19.62,0.01,39.25,0.02,58.87c0,2.29,0.25,4.77-2.65,5.5
		c-2.86,0.72-3.84-1.56-5.03-3.51c-2.32-3.83-3.43-7.83-3.35-12.42c0.22-13.26,0.19-26.52,0.01-39.78
		c-0.07-5.26,2.2-9.48,4.92-13.57C116.43,120.86,117.38,120.97,120.7,123.24z"/>
	<path class="st2" d="M260.08,183.7c-2.18,6.63-4.75,12.86-9.15,18.15c-8.86,10.67-21.49,11.65-31.74,2.3
		c-11.04-10.07-15.54-23.4-18.22-37.57c-2.25-11.85-1.76-23.87-0.49-35.65c1.64-15.27,10.8-26.13,23.91-33.72
		c22.13-12.82,51.73-9.22,69.57,8.44c19.74,19.55,17.4,50.2-5.1,66.64C280.27,178.59,273.71,181.2,260.08,183.7z"/>
	<path class="st0" d="M362.71,183.7c2.18,6.63,4.75,12.86,9.15,18.15c8.86,10.67,21.49,11.65,31.74,2.3
		c11.04-10.07,15.54-23.4,18.22-37.57c2.25-11.85,1.76-23.87,0.49-35.65c-1.64-15.27-10.8-26.13-23.91-33.72
		c-22.13-12.82-51.73-9.22-69.57,8.44c-19.74,19.55-17.4,50.2,5.1,66.64C342.52,178.59,349.08,181.2,362.71,183.7z"/>
	<path class="st2" d="M362.71,183.7c2.18,6.63,4.75,12.86,9.15,18.15c8.86,10.67,21.49,11.65,31.74,2.3
		c11.04-10.07,15.54-23.4,18.22-37.57c2.25-11.85,1.76-23.87,0.49-35.65c-1.64-15.27-10.8-26.13-23.91-33.72
		c-22.13-12.82-51.73-9.22-69.57,8.44c-19.74,19.55-17.4,50.2,5.1,66.64C342.52,178.59,349.08,181.2,362.71,183.7z"/>
</g>
</svg>
